<svg height="926" width="720" xmlns="http://www.w3.org/2000/svg">
<rect height="926" fill="#555" width="720"></rect>
<text fill="#7f7" font-family="Courier New" font-size="12" xml:space="preserve">
<tspan x="10" y="26">27 megabytes installed</tspan>
<tspan x="10" y="42"></tspan>
<tspan x="10" y="58">node_modules</tspan>
<tspan x="10" y="74">└─┬ officegen-2@0.3.7 </tspan>
<tspan x="10" y="90">  ├─┬ archiver@1.3.0 </tspan>
<tspan x="10" y="106">  │ ├─┬ archiver-utils@1.3.0 </tspan>
<tspan x="10" y="122">  │ │ ├── graceful-fs@4.1.11 </tspan>
<tspan x="10" y="138">  │ │ ├─┬ lazystream@1.0.0 </tspan>
<tspan x="10" y="154">  │ │ │ └── readable-stream@2.2.9 </tspan>
<tspan x="10" y="170">  │ │ ├─┬ normalize-path@2.1.1 </tspan>
<tspan x="10" y="186">  │ │ │ └── remove-trailing-separator@1.0.1 </tspan>
<tspan x="10" y="202">  │ │ └── readable-stream@2.2.9 </tspan>
<tspan x="10" y="218">  │ ├── async@2.3.0 </tspan>
<tspan x="10" y="234">  │ ├── buffer-crc32@0.2.13 </tspan>
<tspan x="10" y="250">  │ ├─┬ glob@7.1.1 </tspan>
<tspan x="10" y="266">  │ │ ├── fs.realpath@1.0.0 </tspan>
<tspan x="10" y="282">  │ │ ├─┬ inflight@1.0.6 </tspan>
<tspan x="10" y="298">  │ │ │ └── wrappy@1.0.2 </tspan>
<tspan x="10" y="314">  │ │ ├─┬ minimatch@3.0.3 </tspan>
<tspan x="10" y="330">  │ │ │ └─┬ brace-expansion@1.1.7 </tspan>
<tspan x="10" y="346">  │ │ │   ├── balanced-match@0.4.2 </tspan>
<tspan x="10" y="362">  │ │ │   └── concat-map@0.0.1 </tspan>
<tspan x="10" y="378">  │ │ ├── once@1.4.0 </tspan>
<tspan x="10" y="394">  │ │ └── path-is-absolute@1.0.1 </tspan>
<tspan x="10" y="410">  │ ├── lodash@4.17.4 </tspan>
<tspan x="10" y="426">  │ ├─┬ readable-stream@2.2.9 </tspan>
<tspan x="10" y="442">  │ │ ├── buffer-shims@1.0.0 </tspan>
<tspan x="10" y="458">  │ │ ├── isarray@1.0.0 </tspan>
<tspan x="10" y="474">  │ │ ├── process-nextick-args@1.0.7 </tspan>
<tspan x="10" y="490">  │ │ ├── string_decoder@1.0.0 </tspan>
<tspan x="10" y="506">  │ │ └── util-deprecate@1.0.2 </tspan>
<tspan x="10" y="522">  │ ├─┬ tar-stream@1.5.2 </tspan>
<tspan x="10" y="538">  │ │ ├─┬ bl@1.2.0 </tspan>
<tspan x="10" y="554">  │ │ │ └── readable-stream@2.2.9 </tspan>
<tspan x="10" y="570">  │ │ ├── end-of-stream@1.4.0 </tspan>
<tspan x="10" y="586">  │ │ ├── readable-stream@2.2.9 </tspan>
<tspan x="10" y="602">  │ │ └── xtend@4.0.1 </tspan>
<tspan x="10" y="618">  │ ├── walkdir@0.0.11 </tspan>
<tspan x="10" y="634">  │ └─┬ zip-stream@1.1.1 </tspan>
<tspan x="10" y="650">  │   ├─┬ compress-commons@1.2.0 </tspan>
<tspan x="10" y="666">  │   │ ├─┬ crc32-stream@2.0.0 </tspan>
<tspan x="10" y="682">  │   │ │ ├── crc@3.4.4 </tspan>
<tspan x="10" y="698">  │   │ │ └── readable-stream@2.2.9 </tspan>
<tspan x="10" y="714">  │   │ └── readable-stream@2.2.9 </tspan>
<tspan x="10" y="730">  │   └── readable-stream@2.2.9 </tspan>
<tspan x="10" y="746">  ├── coffee-script@1.12.5 </tspan>
<tspan x="10" y="762">  ├── fast-image-size@0.1.3 </tspan>
<tspan x="10" y="778">  ├── moment@2.5.1 </tspan>
<tspan x="10" y="794">  ├─┬ readable-stream@1.0.34 </tspan>
<tspan x="10" y="810">  │ ├── core-util-is@1.0.2 </tspan>
<tspan x="10" y="826">  │ ├── inherits@2.0.3 </tspan>
<tspan x="10" y="842">  │ ├── isarray@0.0.1 </tspan>
<tspan x="10" y="858">  │ └── string_decoder@0.10.31 </tspan>
<tspan x="10" y="874">  ├── setimmediate@1.0.5 </tspan>
<tspan x="10" y="890">  ├── underscore@1.8.3 </tspan>
<tspan x="10" y="906">  └── xmlbuilder@8.2.2</tspan>
</text>
</svg>
